<svg xmlns="http://www.w3.org/2000/svg" xml:space="preserve" width="515.233" height="1263.748" viewBox="0 0 136.322 334.367"><g style="fill:none;fill-opacity:1;stroke:#0b721f;stroke-width:2;stroke-linecap:round;stroke-linejoin:round;stroke-dasharray:none;stroke-opacity:1"><path d="M43.875 70.548c10.286 1.74 51.294-1.2 82.85-2.613" style="fill:none;fill-opacity:1;fill-rule:evenodd;stroke:#0b721f;stroke-width:2;stroke-linecap:round;stroke-linejoin:round;stroke-dasharray:none;stroke-opacity:1" transform="translate(-42.875 -54.96)"/><path d="M87.314 55.96c-5.06 5.422-9.68 7.081-15.165 14.775q4.087 6.068 8.415 10.7c7.243-4.08 12.466-8.021 19.367-12.366q-6.46-4.675-12.617-13.11" style="fill:none;fill-opacity:1;fill-rule:evenodd;stroke:#0b721f;stroke-width:2;stroke-linecap:round;stroke-linejoin:round;stroke-dasharray:none;stroke-opacity:1" transform="translate(-42.875 -54.96)"/></g><path d="M86.26 133.835q3.16-.525 9.314-.578M58.084 116.745c1.761 2.46 1.556 6.72-3.85 7.236-6.47.389-4.763-8.13.27-5.004" style="fill:none;fill-rule:evenodd;stroke:#0b721f;stroke-width:2;stroke-linecap:round;stroke-linejoin:round;stroke-dasharray:none;stroke-opacity:1" transform="translate(-42.875 -54.96)"/><path d="M58.738 119.362c10.831-.515 40.016-.173 60.624-.231" style="fill:none;fill-rule:evenodd;stroke:#0b721f;stroke-width:2;stroke-linecap:round;stroke-linejoin:round;stroke-dasharray:none;stroke-opacity:1" transform="translate(-42.875 -54.96)"/><path d="M84.18 114.281c.22 3.54.338 7.07-.153 10.508l12.202-7.198c-4.196-1.05-8.434-1.775-12.048-3.31" style="fill:#0b721f;fill-opacity:1;fill-rule:evenodd;stroke:#0b721f;stroke-width:2;stroke-linecap:round;stroke-linejoin:round;stroke-dasharray:none;stroke-opacity:1" transform="translate(-42.875 -54.96)"/><path d="M86.606 129.64a41 41 0 0 1 7.16-.193c-2.088 2.036-3.557 3.95-5.159 5.889-1.616 1.809.873 4.131 3.657 2.232M97.114 131.102c2.82-.12 6.03 5.428 9.045 7.236M105.851 131.718l-9.199 6.774M124.943 117.014c-.04-1.897 3.087-2.728 4.812-1.501 3.753 3.109 3.589 3.36-1.963 7.082-1.153.534-2.858-1.011-2.849-2.194z" style="fill:none;fill-rule:evenodd;stroke:#0b721f;stroke-width:2;stroke-linecap:round;stroke-linejoin:round;stroke-dasharray:none;stroke-opacity:1" transform="translate(-42.875 -54.96)"/><g style="stroke:#870a00;stroke-width:2;stroke-linecap:round;stroke-linejoin:round;stroke-dasharray:none;stroke-opacity:1"><path d="M97.21 162.068c5.53-.033 11.796 2.262 12.029 4.754.205 2.188.224 4.799 0 6.39-.95 5.414-2.861 7.781-5.736 7.986-2.818.166-6.038.6-10.334.058-8.996-1.376-10.905-4.741-11.105-7.737a40 40 0 0 1-.077-5.542c.163-3.272 3.677-3.719 8.853-6.775 1.527-.827 2.418-1.56 5.504-1.02" style="fill:none;fill-rule:evenodd;stroke:#870a00;stroke-width:2;stroke-linecap:round;stroke-linejoin:round;stroke-dasharray:none;stroke-opacity:1" transform="translate(-42.875 -54.96)"/><path d="M48.846 172.904c13.895 1.09 24.583.615 40.724.192 8.813-.463 31.167.528 43.149-.847" style="fill:none;fill-rule:evenodd;stroke:#870a00;stroke-width:2;stroke-linecap:round;stroke-linejoin:round;stroke-dasharray:none;stroke-opacity:1" transform="translate(-42.875 -54.96)"/></g><g style="stroke:#2964ce;stroke-width:2;stroke-linecap:round;stroke-linejoin:round;stroke-dasharray:none;stroke-opacity:1"><path d="M57.391 226.2c8.422 1.076 22.533 1.087 39.721.196 11.817-.738 20.523.448 40.173-.11" style="fill:none;fill-rule:evenodd;stroke:#2964ce;stroke-width:2;stroke-linecap:round;stroke-linejoin:round;stroke-dasharray:none;stroke-opacity:1" transform="translate(-42.875 -54.96)"/><path d="m91.07 222.34.898 8.492c6.517-4.084 9.57-3.488 14.752-4.22-5.333-1.285-10.671-2.562-15.65-4.272M100.136 216.938c3.63-4.18 5.621-8.6 7.217-13.491.893 5.278 2.196 9.225 5.908 12.933" style="fill:none;fill-rule:evenodd;stroke:#2964ce;stroke-width:2;stroke-linecap:round;stroke-linejoin:round;stroke-dasharray:none;stroke-opacity:1" transform="translate(-42.875 -54.96)"/><path d="M105.123 213.953c2.581.048 5.533-.33 8.446-.71" style="fill:none;fill-rule:evenodd;stroke:#2964ce;stroke-width:1.5;stroke-linecap:round;stroke-linejoin:round;stroke-dasharray:none;stroke-opacity:1" transform="translate(-42.875 -54.96)"/></g><path d="M52.926 273.79c8.156.16 16.311.321 24.467.126 1.235-2.005 2.245-3.727 4.587-7.116 1.389 5.46 3.103 12.092 4.938 12.066 2.532.035 2.964-7.096 6.886-12.351 1.431 5.586 3.328 11.909 5.837 12.317 2.51.377 5.183-10.002 7.607-12.992.856 4.018 2.829 12.706 4.785 11.518 2.383-1.766 3.52-8.84 5.674-11.151 2.476 3.66 5.687 10.789 7.429 10.752 1.315-.112 1.383-2.933 1.847-5.17 5.28.3 10.607.668 15.397.269" style="fill:none;fill-rule:evenodd;stroke:#c740f8;stroke-width:2;stroke-linecap:round;stroke-linejoin:round;stroke-dasharray:none;stroke-opacity:1" transform="translate(-42.875 -54.96)"/><path d="M54.49 329.06c13.543.403 35.002-.744 49.154-1.524 13.12-.002 27.241.609 37.942-.87" style="fill:none;fill-rule:evenodd;stroke:#ec0c00;stroke-width:2;stroke-linecap:round;stroke-linejoin:round;stroke-dasharray:none;stroke-opacity:1" transform="translate(-42.875 -54.96)"/><path d="M99.18 324.488c1.206 3.532 2.097 6.621 2.723 9.798q3.949-3.349 10.07-6.314c-4.795-1.202-10.322-2.146-12.792-3.484" style="fill:#ed0c00;fill-opacity:1;fill-rule:evenodd;stroke:#ec0c00;stroke-width:2;stroke-linecap:round;stroke-linejoin:round;stroke-dasharray:none;stroke-opacity:1" transform="translate(-42.875 -54.96)"/><path d="M85.338 316.326c3.854-.153 8.034-.465 12.809-.82M86.229 301.318c4.012-.546 9.644-.849 15.152-.794" style="fill:none;fill-rule:evenodd;stroke:#ec0c00;stroke-width:2;stroke-linecap:round;stroke-linejoin:round;stroke-dasharray:none;stroke-opacity:1" transform="translate(-42.875 -54.96)"/><path d="M91.478 300.802c-.932 5.072-1.265 10.158-.725 15.143" style="fill:none;fill-rule:evenodd;stroke:#ec0c00;stroke-width:2;stroke-linecap:round;stroke-linejoin:round;stroke-dasharray:none;stroke-opacity:1" transform="translate(-42.875 -54.96)"/><path d="M71.55 360.543c-5.07 1.125-9.495.639-13.716.725-.506 4.538 6.854 3.602 10.255 5.098-2.98.691-5.495 1.677-7.613 2.339-6.308 1.982-.374 3.485 1.333 3.578 3.495.174 6.176-.208 8.49-.842M75.186 373.312c.044-2.325-.044-4.773 2.245-6.899 2.675 2.344 9.702.035 9.852-1.43.268-2.205-2.69-3.987-5.104-3.808-5.282.31-5.28 2.671-4.748 5.238M86.645 369.126l2.105.07M85.336 373.148l-.982 4.911M99.344 366.25q-5.085 3.046-5.753 7.857c4.284-.443 8.553-.284 12.792 1.076-2.575-3.207-4.75-6.013-7.039-8.934M99.39 363.256l-.046 2.993M109.68 371.488c.17 2.006.114 3.948.07 5.893M112.277 367.466l-.608.912-.515-.89M125.84 361.806c-3.807 9.995-8.458 18.962-13.236 26.52M129.676 377.358c-1.447 3.485-3.64 7.015-5.52 10.43 4.047-.182 8.404-.378 12.886-.187-2.607-3.149-5.005-6.663-7.366-10.243M161.124 365.924c2.604.691 7.37.73 10.966.607-3.055 6.091-7.036 12.659-8.61 17.942" style="fill:none;fill-rule:evenodd;stroke:#0a0a0a;stroke-width:2;stroke-linecap:round;stroke-linejoin:round;stroke-dasharray:none;stroke-opacity:1" transform="translate(-42.875 -54.96)"/><path d="M158.948 379.512c-.186-1.216 6.754-.4 12.734-.794M172.012 316.97c-6.594-.423-8.605 3.727-10.88 7.674-2.307 4.26-.286 7.845 1.29 8.301 1.39.387 2.853.387 3.935-.066 7.395-2.56.424-5.334-2.547-5.457M178.197 265.972c-6.16.054-12.53-.384-16.173 1.985-2.52 1.518-1.85 4.172-.364 4.928 3.43 1.167 6.701 2.36 9.874 3.863 1.959.885 3.145 2.65-.712 3.446-3.53.105-7.165.03-9.625-1.786" style="fill:none;fill-rule:evenodd;stroke:#0a0a0a;stroke-width:2;stroke-linecap:round;stroke-linejoin:round;stroke-dasharray:none;stroke-opacity:1" transform="translate(-42.875 -54.96)"/><g style="stroke:#0a0a0a;stroke-opacity:1"><path d="M160.982 215.883c-3.071 8.928 4.545 6.778 9.145 7.194" style="fill:none;fill-rule:evenodd;stroke:#0a0a0a;stroke-width:2;stroke-linecap:round;stroke-linejoin:round;stroke-dasharray:none;stroke-opacity:1" transform="translate(-42.875 -54.96)"/><path d="M171.748 216.33c-2.052 1.287-2.96 11.317 1.124 15.941" style="fill:none;fill-rule:evenodd;stroke:#0a0a0a;stroke-width:2;stroke-linecap:round;stroke-linejoin:round;stroke-dasharray:none;stroke-opacity:1" transform="translate(-42.875 -54.96)"/></g><path d="M163.645 179.156c1.221-.2 2.985-.373 8.514-.358.47-1.299.801-2.204-1.252-3.576-2.12-1.63-4.69-3.129-6.387-5.151.598-.787 3.966-2.35 6.212-3.282 2.104-.85 2.101-2.74-.357-3.041-2.864-.361-6.183-.272-9.036-.214-.035.587-.06 1.197-.002 1.69" style="fill:none;fill-rule:evenodd;stroke:#0a0a0a;stroke-width:2;stroke-linecap:round;stroke-linejoin:round;stroke-dasharray:none;stroke-opacity:1;paint-order:stroke fill markers" transform="translate(-42.875 -54.96)"/><path d="M161.197 115.127c1.945-2.036 6.83-1.197 9.466.297 2.983 1.618 1.106 3.526-.271 4.73-3.556 2.969-6.258 4.624-7.806 7.474-.19.432-.33 1.409 0 1.423 2.931.39 6.785-.443 11.477.628M158.452 77.49c8.478-7.557 8.24-9.465 10.749-14.52-1.198 7.164.426 13.606-1.356 19.58" style="fill:none;fill-rule:evenodd;stroke:#0a0a0a;stroke-width:2;stroke-linecap:round;stroke-linejoin:round;stroke-dasharray:none;stroke-opacity:1" transform="translate(-42.875 -54.96)"/></svg>